<svg width="847" height="942" viewBox="0 0 847 942" fill="none" xmlns="http://www.w3.org/2000/svg">
<path d="M156.252 641C118.752 611 62.2525 604 17.7524 641C3.75237 583 -12.2476 492.5 14.2524 411C50.2524 312.5 97.2523 278.5 152.752 251.5C208.252 224.5 257.538 243 265.752 277.5C273.966 312 280.752 348.5 198.252 372C115.753 395.5 109.252 468.5 134.252 515.5C159.252 562.5 207.752 561.5 304.252 561.5C400.752 561.5 443.752 677.5 391.752 739C339.752 800.5 263.753 781 234.752 758.5C205.752 736 198.752 673.5 156.252 641Z" fill="#CA4B4D"/>
<path d="M212.752 777C190.752 756 178.252 704.5 136.752 662C95.2523 619.5 35.6491 661.214 25.7524 668C30.2524 685.5 38.7524 713.5 60.2524 758C83.7964 806.731 111.252 849.5 164.752 900.5C207.552 941.3 261.752 944.5 296.752 940C249.252 899.5 250.752 846.5 272.752 807C258.252 802 234.753 798 212.752 777Z" fill="#F2DB5D"/>
<path d="M281.752 244.5C290.752 256.5 306.752 285 290.252 336C273.752 387 208.252 389 170.752 416.5C133.252 444 148.689 498.451 174.752 518.5C207.252 543.5 271.252 533 299.752 532.5C322.552 532.1 341.252 538 347.752 541C345.586 534.667 343.652 515.5 353.252 489.5C365.252 457 392.252 436 407.252 402C422.252 368 419.252 314 435.252 284C405.752 286.5 379.752 262.581 349.752 250C323.791 239.113 300.252 235 290.252 234C280.252 233 272.752 232.5 281.752 244.5Z" fill="#2ACA75"/>
<path d="M384.752 485.5C369.419 508.5 361.752 546 401.252 579.5C466.252 623 496.252 536 582.252 530C617.252 526.875 666.252 548.5 680.752 565C690.752 558.5 698.252 549.5 707.252 540C693.252 525.5 704.752 451.5 687.252 427.5C669.752 403.5 639.964 406.66 599.252 384.5C559.752 363 550.752 321.5 550.752 300C550.752 278.5 558.252 262 564.252 252C570.252 242 566.752 236.5 551.752 236.5C536.752 236.5 502.752 244.5 472.252 270.5C441.752 296.5 443.752 388 428.752 419.5C413.752 451 401.752 460 384.752 485.5Z" fill="#F2DB5D"/>
<path d="M635.252 236.5C610.67 237.981 595.252 251.001 585.752 269.501C576.252 288.001 576.652 315.6 590.252 338C610.288 371 651.252 360.001 694.252 397.001C737.252 434.001 720.625 479.5 726.752 515.5C730.752 539 751.752 561.001 785.252 561.001C821.752 561.001 840.891 535.632 845.752 509.501C849.752 488 840.752 402.5 792.252 333C743.752 263.5 676.752 234 635.252 236.5Z" fill="#CA4B4D"/>
<path d="M309.252 817C289.735 827.054 276.252 863 291.752 891.5C316.226 936.5 354.48 916.126 406.752 909.5C442.252 905 479.252 914.5 503.752 927C493.252 909 474.752 845 522.252 803.5C577.252 758 607.252 801.5 668.752 744C704.847 704.624 705.627 652 682.252 608C665.252 576 619.658 554.544 577.752 558C529.252 562 497.252 610 450.252 616C438.042 617.559 429.192 613.5 435.252 629.5C447.752 662.5 442.502 699.5 426.252 732C395.752 793 342.252 800 309.252 817Z" fill="#2ACA75"/>
<path d="M577.252 806.5C546.575 809.687 509.252 844 517.252 882.5C525.252 921 545.706 939 588.752 939C641.752 939 725.833 874.448 773.752 789.5C828.752 692 841.752 625 846.752 569.5C833.919 576 804.252 593 775.252 588C747.634 583.238 730.586 573.5 721.252 559C714.752 567 705.252 575 696.752 582C721.252 613 739.495 683.883 711.252 732C670.752 801 615.752 802.5 577.252 806.5Z" fill="#11932F"/>
<path d="M504.252 0C442.752 0 422.252 50.5 422.252 76V207.5C422.252 216.5 428.752 222.5 435.752 222.5C463.252 222.5 497.252 168.5 524.752 168.5H607.252C625.252 168.5 675.252 146 675.252 97.5V19.5C675.252 9 669.252 0 654.252 0H504.252Z" fill="#11932F"/>
</svg>
